<svg width="176" height="45" viewBox="0 0 176 45" fill="none" xmlns="http://www.w3.org/2000/svg">
<g filter="url(#filter0_d_22_11)">
<path d="M54.2482 10.8004C55.8358 10.8004 57.2097 11.0559 58.3705 11.567C59.548 12.0781 60.4521 12.8034 61.0837 13.7432C61.7152 14.6829 62.0313 15.7957 62.0313 17.0816C62.0313 18.351 61.7152 19.4638 61.0837 20.42C60.4521 21.3597 59.548 22.0851 58.3705 22.5964C57.2097 23.0907 55.8358 23.3381 54.2482 23.3381H50.6388V28.1109H46.4918V10.8004H54.2482ZM54.0182 20.0738C55.2635 20.0738 56.2111 19.8183 56.8595 19.3072C57.5084 18.7796 57.8323 18.0378 57.8323 17.0816C57.8323 16.1089 57.5084 15.367 56.8595 14.856C56.2111 14.3284 55.2635 14.0647 54.0182 14.0647H50.6388V20.0738H54.0182Z" fill="#81818B"/>
<path d="M67.2451 16.5623C67.7223 15.9194 68.3628 15.433 69.1645 15.1033C69.984 14.7736 70.9222 14.6088 71.9806 14.6088V18.1697C71.5369 18.1368 71.2382 18.1203 71.0844 18.1203C69.9409 18.1203 69.0453 18.4335 68.3969 19.06C67.748 19.6699 67.4236 20.5932 67.4236 21.8296V28.111H63.4304V14.8066H67.2451V16.5623Z" fill="#81818B"/>
<path d="M79.5038 28.3085C78.0533 28.3085 76.7476 28.0203 75.5873 27.4431C74.4439 26.8498 73.5477 26.0334 72.8993 24.9948C72.251 23.9562 71.9265 22.7774 71.9265 21.4587C71.9265 20.1398 72.251 18.9611 72.8993 17.9224C73.5477 16.8838 74.4439 16.076 75.5873 15.499C76.7476 14.9055 78.0533 14.6088 79.5038 14.6088C80.9544 14.6088 82.2517 14.9055 83.3951 15.499C84.5386 16.076 85.4348 16.8838 86.0837 17.9224C86.7315 18.9611 87.056 20.1398 87.056 21.4587C87.056 22.7774 86.7315 23.9562 86.0837 24.9948C85.4348 26.0334 84.5386 26.8498 83.3951 27.4431C82.2517 28.0203 80.9544 28.3085 79.5038 28.3085ZM79.5038 25.1432C80.5281 25.1432 81.3644 24.8138 82.0128 24.1541C82.6785 23.4783 83.0108 22.5799 83.0108 21.4587C83.0108 20.3377 82.6785 19.4474 82.0128 18.7879C81.3644 18.112 80.5281 17.774 79.5038 17.774C78.4801 17.774 77.6354 18.112 76.9697 18.7879C76.304 19.4474 75.9711 20.3377 75.9711 21.4587C75.9711 22.5799 76.304 23.4783 76.9697 24.1541C77.6354 24.8138 78.4801 25.1432 79.5038 25.1432Z" fill="#81818B"/>
<path d="M105.163 10.8004V28.1109H101.758L92.8231 17.6009V28.1109H88.7271V10.8004H92.1574L101.067 21.3103V10.8004H105.163Z" fill="#81818B"/>
<path d="M113.396 14.6088C115.529 14.6088 117.168 15.1033 118.311 16.0925C119.455 17.0652 120.026 18.5407 120.026 20.519V28.111H116.289V26.4539C115.538 27.6905 114.139 28.3085 112.091 28.3085C111.032 28.3085 110.11 28.1357 109.325 27.7894C108.558 27.4431 107.969 26.9652 107.559 26.355C107.15 25.7452 106.945 25.0525 106.945 24.2778C106.945 23.0413 107.423 22.0687 108.378 21.3598C109.351 20.6509 110.845 20.2965 112.859 20.2965H116.033C116.033 19.4556 115.769 18.8127 115.239 18.3676C114.71 17.9059 113.917 17.6751 112.859 17.6751C112.125 17.6751 111.399 17.7905 110.683 18.0214C109.983 18.2357 109.385 18.5325 108.89 18.9116L107.457 16.2161C108.208 15.7051 109.103 15.3094 110.144 15.0291C111.203 14.7489 112.287 14.6088 113.396 14.6088ZM113.089 25.7122C113.772 25.7122 114.377 25.5638 114.906 25.2669C115.435 24.9536 115.811 24.5004 116.033 23.9067V22.547H113.294C111.655 22.547 110.836 23.066 110.836 24.1047C110.836 24.5994 111.032 24.9948 111.425 25.2917C111.834 25.572 112.389 25.7122 113.089 25.7122Z" fill="#81818B"/>
<path d="M131.244 27.4678C130.852 27.7481 130.365 27.9625 129.785 28.1109C129.222 28.2425 128.624 28.3084 127.993 28.3084C126.355 28.3084 125.083 27.9048 124.179 27.0971C123.291 26.289 122.847 25.102 122.847 23.536V18.0708H120.723V15.1033H122.847V11.8638H126.841V15.1033H130.271V18.0708H126.841V23.4865C126.841 24.0469 126.986 24.4839 127.276 24.7972C127.583 25.0937 128.01 25.2421 128.556 25.2421C129.188 25.2421 129.725 25.0772 130.169 24.7478L131.244 27.4678Z" fill="#81818B"/>
<path d="M146.082 14.8066V28.111H142.293V26.5282C141.764 27.105 141.132 27.5503 140.398 27.8637C139.664 28.1605 138.871 28.3085 138.017 28.3085C136.208 28.3085 134.775 27.806 133.716 26.8003C132.658 25.7947 132.129 24.3026 132.129 22.3244V14.8066H136.123V21.7554C136.123 23.8985 137.053 24.9701 138.913 24.9701C139.869 24.9701 140.637 24.6737 141.218 24.0799C141.797 23.4701 142.088 22.5718 142.088 21.3846V14.8066H146.082Z" fill="#81818B"/>
<path d="M152.316 16.5623C152.793 15.9194 153.434 15.433 154.236 15.1033C155.055 14.7736 155.994 14.6088 157.052 14.6088V18.1697C156.608 18.1368 156.309 18.1203 156.156 18.1203C155.012 18.1203 154.116 18.4335 153.468 19.06C152.819 19.6699 152.495 20.5932 152.495 21.8296V28.111H148.501V14.8066H152.316V16.5623Z" fill="#81818B"/>
<path d="M171.513 21.5084C171.513 21.5574 171.488 21.9037 171.436 22.547H161.017C161.204 23.3712 161.648 24.0222 162.348 24.5004C163.048 24.9783 163.918 25.2174 164.959 25.2174C165.676 25.2174 166.307 25.1185 166.853 24.9206C167.417 24.7066 167.937 24.3768 168.415 23.9315L170.54 26.1571C169.243 27.5915 167.348 28.3085 164.856 28.3085C163.304 28.3085 161.93 28.0203 160.735 27.4431C159.54 26.8498 158.619 26.0334 157.97 24.9948C157.321 23.9562 156.997 22.7774 156.997 21.4587C156.997 20.1563 157.313 18.9858 157.945 17.9472C158.593 16.892 159.472 16.076 160.581 15.499C161.708 14.9055 162.962 14.6088 164.345 14.6088C165.693 14.6088 166.913 14.889 168.006 15.4495C169.098 16.01 169.951 16.8179 170.566 17.873C171.197 18.9116 171.513 20.1233 171.513 21.5084ZM164.37 17.5268C163.466 17.5268 162.706 17.774 162.092 18.2686C161.477 18.7633 161.102 19.4392 160.965 20.2965H167.75C167.613 19.4556 167.237 18.7879 166.623 18.2934C166.009 17.7823 165.258 17.5268 164.37 17.5268Z" fill="#81818B"/>
<path fill-rule="evenodd" clip-rule="evenodd" d="M23.748 1.16018C23.1395 0.820141 22.3893 0.820141 21.7808 1.16018C17.4588 3.57524 14.5437 8.09386 14.5437 13.2725C14.5437 14.0105 14.603 14.7352 14.717 15.4423C11.7418 14.4663 8.52028 14.8214 5.88898 16.286C5.27993 16.6251 4.90477 17.2526 4.9054 17.9317C4.90849 21.5141 6.83504 25.0055 10.2853 26.9297C11.978 27.8739 13.8256 28.3225 15.6479 28.3233C15.3707 29.0824 15.2198 29.8987 15.2198 30.7493C15.2198 34.7743 18.5976 38.0366 22.7641 38.0366C26.9309 38.0366 30.3084 34.7743 30.3084 30.7493C30.3084 29.8966 30.1568 29.0786 29.8785 28.3184C31.5923 28.266 33.3184 27.8166 34.9079 26.9297C38.3586 25.0055 40.2848 21.5141 40.2874 17.9318C40.2885 17.2528 39.9131 16.6252 39.3041 16.2862C36.7767 14.8792 33.7042 14.4961 30.8291 15.3333C30.932 14.6608 30.9849 13.9727 30.9849 13.2725C30.9849 8.09386 28.0701 3.57524 23.748 1.16018ZM18.4724 13.2725C18.4724 9.90963 20.1581 6.92531 22.7644 5.06771C25.3707 6.92531 27.0564 9.90963 27.0564 13.2725C27.0564 16.6352 25.3707 19.6196 22.7644 21.4771C20.1581 19.6196 18.4724 16.6352 18.4724 13.2725ZM30.5115 19.5744C32.3256 18.5626 34.4217 18.445 36.2528 19.0851C35.9115 20.937 34.7576 22.6315 32.9436 23.6433C31.1296 24.655 29.0335 24.7725 27.2024 24.1327C27.5438 22.2806 28.6975 20.5861 30.5115 19.5744ZM8.9405 19.085C10.7715 18.4448 12.8676 18.5625 14.6816 19.5742C16.4958 20.5859 17.6493 22.2806 17.9909 24.1322C16.1598 24.7725 14.0638 24.655 12.2497 23.6433C10.4356 22.6315 9.28206 20.9368 8.9405 19.085ZM19.1485 30.7493C19.1485 28.8205 20.7673 27.2567 22.7641 27.2567C24.761 27.2567 26.3798 28.8205 26.3798 30.7493C26.3798 32.678 24.761 34.2419 22.7641 34.2419C20.7673 34.2419 19.1485 32.678 19.1485 30.7493Z" fill="#81818B"/>
</g>
<defs>
<filter id="filter0_d_22_11" x="0.905396" y="0.905151" width="174.607" height="45.1315" filterUnits="userSpaceOnUse" color-interpolation-filters="sRGB">
<feFlood flood-opacity="0" result="BackgroundImageFix"/>
<feColorMatrix in="SourceAlpha" type="matrix" values="0 0 0 0 0 0 0 0 0 0 0 0 0 0 0 0 0 0 127 0" result="hardAlpha"/>
<feOffset dy="4"/>
<feGaussianBlur stdDeviation="2"/>
<feComposite in2="hardAlpha" operator="out"/>
<feColorMatrix type="matrix" values="0 0 0 0 0 0 0 0 0 0 0 0 0 0 0 0 0 0 0.25 0"/>
<feBlend mode="normal" in2="BackgroundImageFix" result="effect1_dropShadow_22_11"/>
<feBlend mode="normal" in="SourceGraphic" in2="effect1_dropShadow_22_11" result="shape"/>
</filter>
</defs>
</svg>
